<svg xmlns="http://www.w3.org/2000/svg" width="13.954" height="16.745" viewBox="0 0 13.954 16.745">
  <g id="notification" transform="translate(-42.675)">
    <g id="Group_1146" data-name="Group 1146" transform="translate(42.675)">
      <g id="Group_1145" data-name="Group 1145">
        <path id="Path_2016" data-name="Path 2016" d="M56.579,14.124l-1.2-2a5.932,5.932,0,0,1-.846-3.052V7.326a4.89,4.89,0,0,0-3.489-4.678V1.4a1.4,1.4,0,0,0-2.791,0V2.648a4.89,4.89,0,0,0-3.489,4.678V9.075a5.935,5.935,0,0,1-.845,3.051l-1.2,2a.349.349,0,0,0,.3.529H56.28a.349.349,0,0,0,.3-.528Z" transform="translate(-42.675 0)" fill="#b9b9b9"/>
      </g>
    </g>
    <g id="Group_1148" data-name="Group 1148" transform="translate(47.455 15.35)">
      <g id="Group_1147" data-name="Group 1147">
        <path id="Path_2017" data-name="Path 2017" d="M188.815,469.333a2.427,2.427,0,0,0,4.394,0Z" transform="translate(-188.815 -469.333)" fill="#b9b9b9"/>
      </g>
    </g>
  </g>
</svg>
