<svg xmlns="http://www.w3.org/2000/svg" width="18.559" height="18.98" viewBox="0 0 18.559 18.98">
  <g id="calendar" transform="translate(-5.411)">
    <g id="Group_1273" data-name="Group 1273" transform="translate(5.411)">
      <path id="Path_2187" data-name="Path 2187" d="M119.4,258.672a.431.431,0,0,0-.431-.43h-1.5a.43.43,0,0,0-.431.43v1.5a.431.431,0,0,0,.431.431h1.5a.431.431,0,0,0,.431-.431v-1.5Z" transform="translate(-112.695 -248.201)" fill="#4b5b79"/>
      <path id="Path_2188" data-name="Path 2188" d="M216.034,258.672a.43.43,0,0,0-.43-.43h-1.5a.43.43,0,0,0-.431.43v1.5a.431.431,0,0,0,.431.431h1.5a.431.431,0,0,0,.43-.431Z" transform="translate(-205.573 -248.201)" fill="#4b5b79"/>
      <path id="Path_2189" data-name="Path 2189" d="M312.663,258.672a.431.431,0,0,0-.431-.43h-1.5a.431.431,0,0,0-.431.43v1.5a.431.431,0,0,0,.431.431h1.5a.431.431,0,0,0,.431-.431Z" transform="translate(-298.444 -248.201)" fill="#4b5b79"/>
      <path id="Path_2190" data-name="Path 2190" d="M119.4,355.306a.43.43,0,0,0-.431-.431h-1.5a.43.43,0,0,0-.431.431v1.5a.431.431,0,0,0,.431.431h1.5a.431.431,0,0,0,.431-.431v-1.5Z" transform="translate(-112.695 -341.077)" fill="#4b5b79"/>
      <path id="Path_2191" data-name="Path 2191" d="M216.034,355.306a.43.43,0,0,0-.43-.431h-1.5a.43.43,0,0,0-.431.431v1.5a.431.431,0,0,0,.431.431h1.5a.431.431,0,0,0,.43-.431Z" transform="translate(-205.573 -341.077)" fill="#4b5b79"/>
      <path id="Path_2192" data-name="Path 2192" d="M312.663,355.306a.43.43,0,0,0-.43-.431h-1.5a.43.43,0,0,0-.431.431v1.5a.431.431,0,0,0,.431.431h1.5a.431.431,0,0,0,.43-.431v-1.5Z" transform="translate(-298.444 -341.077)" fill="#4b5b79"/>
      <path id="Path_2193" data-name="Path 2193" d="M22.318,54.15v2.3a1.875,1.875,0,0,1-1.879,1.874H19.253a1.885,1.885,0,0,1-1.891-1.874v-2.3H12.019v2.3a1.885,1.885,0,0,1-1.89,1.874H8.942a1.875,1.875,0,0,1-1.879-1.874v-2.3a1.709,1.709,0,0,0-1.652,1.7V69.305a1.71,1.71,0,0,0,1.7,1.711H22.269a1.712,1.712,0,0,0,1.7-1.711V55.85A1.709,1.709,0,0,0,22.318,54.15Zm-.551,14.317a.736.736,0,0,1-.735.735H8.317a.736.736,0,0,1-.735-.735v-6.95a.736.736,0,0,1,.735-.736H21.032a.736.736,0,0,1,.735.736v6.95Z" transform="translate(-5.411 -52.037)" fill="#4b5b79"/>
      <path id="Path_2194" data-name="Path 2194" d="M80.195,5.052h1.173a.644.644,0,0,0,.645-.644V.644A.644.644,0,0,0,81.367,0H80.195a.644.644,0,0,0-.645.644V4.408A.644.644,0,0,0,80.195,5.052Z" transform="translate(-76.667)" fill="#4b5b79"/>
      <path id="Path_2195" data-name="Path 2195" d="M345.1,5.052h1.173a.644.644,0,0,0,.644-.644V.644A.644.644,0,0,0,346.275,0H345.1a.644.644,0,0,0-.645.644V4.408A.644.644,0,0,0,345.1,5.052Z" transform="translate(-331.276)" fill="#4b5b79"/>
    </g>
  </g>
</svg>
