<svg xmlns="http://www.w3.org/2000/svg" width="15.209" height="17.304" viewBox="0 0 15.209 17.304">
  <g id="user" transform="translate(-31)">
    <g id="Group_1270" data-name="Group 1270" transform="translate(34.042)">
      <g id="Group_1269" data-name="Group 1269" transform="translate(0)">
        <path id="Path_2185" data-name="Path 2185" d="M125.563,0a4.563,4.563,0,1,0,4.563,4.563A4.568,4.568,0,0,0,125.563,0Z" transform="translate(-121)" fill="#4b5b79"/>
      </g>
    </g>
    <g id="Group_1272" data-name="Group 1272" transform="translate(31 10.139)">
      <g id="Group_1271" data-name="Group 1271" transform="translate(0)">
        <path id="Path_2186" data-name="Path 2186" d="M44.281,301.967A6.5,6.5,0,0,0,39.618,300H37.591a6.5,6.5,0,0,0-4.663,1.967A6.649,6.649,0,0,0,31,306.658a.507.507,0,0,0,.507.507H45.7a.507.507,0,0,0,.507-.507A6.65,6.65,0,0,0,44.281,301.967Z" transform="translate(-31 -300)" fill="#4b5b79"/>
      </g>
    </g>
  </g>
</svg>
